<svg xmlns="http://www.w3.org/2000/svg" width="24" height="24" viewBox="0 0 24 24">
    <g fill="none" fill-rule="evenodd">
        <g fill="#FFF">
            <g>
                <g>
                    <g>
                        <path d="M16.026 9.05C19.382 9.05 20 11.26 20 14.13V20h-.004V20h-3.31v-5.461c-.011-1.19-.143-2.568-1.725-2.568-1.724 0-1.988 1.346-1.988 2.739V20H9.659V9.316h3.182v1.457h.047c.442-.84 1.525-1.725 3.138-1.725zm-8.445.268V20H4.264V9.318h3.317zM5.921 4c1.06 0 1.921.86 1.922 1.921 0 1.061-.861 1.94-1.922 1.94C4.861 7.86 4 6.982 4 5.92 4 4.861 4.86 4 5.921 4z" transform="translate(-1072 -1652) translate(0 1614) translate(247 38) translate(825)"/>
                    </g>
                </g>
            </g>
        </g>
    </g>
</svg>
