<svg xmlns="http://www.w3.org/2000/svg" width="24" height="24" viewBox="0 0 24 24">
    <g fill="none" fill-rule="evenodd">
        <g fill="#FFF">
            <g>
                <g>
                    <g>
                        <path d="M11.992 2C6.482 2 2 6.482 2 11.992c0 5.51 4.482 9.991 9.992 9.991 5.51 0 9.992-4.482 9.992-9.991C21.984 6.482 17.5 2 11.992 2zm6.511 4.712c1.122 1.381 1.812 3.124 1.87 5.024-2.078-.43-3.96-.38-5.62-.054-.301-.704-.613-1.374-.927-2.007 1.809-.78 3.384-1.774 4.677-2.963zm-1.126-1.144c-1.283 1.172-2.771 2.04-4.294 2.68-1.118-2.044-2.188-3.584-2.84-4.459.564-.12 1.15-.185 1.749-.185 2.049 0 3.927.74 5.385 1.964zM8.623 4.313c.492.638 1.664 2.234 2.923 4.506-3.164 1.03-6.235 1.204-7.71 1.22.615-2.568 2.414-4.68 4.787-5.726zm-5.01 7.335h.047c1.02 0 2.888-.069 5.087-.47 1.254-.228 2.444-.536 3.56-.918.29.58.58 1.19.86 1.83-1.563.504-2.882 1.228-3.926 1.947-1.75 1.205-2.977 2.543-3.647 3.37-1.24-1.462-1.99-3.352-1.99-5.415 0-.116.004-.23.009-.344zm3.137 6.885c.577-.726 1.75-2.048 3.448-3.207 1.154-.788 2.347-1.373 3.576-1.758.713 1.848 1.322 3.89 1.685 6.058-1.058.482-2.231.753-3.467.753-1.982 0-3.805-.692-5.242-1.846zm10.185.23c-.374-1.992-.932-3.864-1.577-5.575 1.586-.268 3.225-.213 4.91.166-.364 2.212-1.595 4.136-3.333 5.408z" transform="translate(-1120 -1652) translate(0 1614) translate(247 38) translate(873)"/>
                    </g>
                </g>
            </g>
        </g>
    </g>
</svg>
