<svg xmlns="http://www.w3.org/2000/svg" width="24" height="24" viewBox="0 0 24 24">
    <g fill="none" fill-rule="evenodd">
        <g fill="#FFF">
            <g>
                <g>
                    <g>
                        <path d="M19 4.25c1.519 0 2.75 1.231 2.75 2.75v10c0 1.519-1.231 2.75-2.75 2.75H5c-1.519 0-2.75-1.231-2.75-2.75V7c0-1.519 1.231-2.75 2.75-2.75zm1.25 5.024l-7.886 4.382c-.194.107-.424.123-.628.046l-.1-.046L3.75 9.274V17c0 .647.492 1.18 1.122 1.244L5 18.25h14c.69 0 1.25-.56 1.25-1.25V9.274zM19 5.75H5c-.69 0-1.25.56-1.25 1.25v.558l8.249 4.583 8.251-4.583V7c0-.647-.492-1.18-1.122-1.244L19 5.75z" transform="translate(-1024 -1652) translate(0 1614) translate(247 38) translate(777)"/>
                    </g>
                </g>
            </g>
        </g>
    </g>
</svg>
