<svg xmlns="http://www.w3.org/2000/svg" width="24" height="24" viewBox="0 0 24 24">
    <g fill="none" fill-rule="evenodd">
        <g fill="#FFF">
            <g>
                <g>
                    <g>
                        <path d="M8.284 3.057c1.654-.073 5.747-.077 7.4 0 3.38.156 5.072 2.068 5.22 5.22.073 1.654.078 5.747 0 7.4-.123 2.67-1.378 4.158-3.042 4.804-1.097.424-2.17.466-4.875.47l-1.003.001c-3.373 0-5.735.227-7.469-1.506-1.7-1.702-1.506-3.975-1.506-7.468 0-3.414-.22-5.741 1.506-7.469 1.034-1.033 2.316-1.384 3.77-1.452zm3.667 1.539h-1c-1.005.003-1.484.009-1.93.021l-.19.006-.514.017c-4.15.213-3.725 3.19-3.725 7.326l-.001.335c-.014 2.868-.18 4.782 1.034 5.99 1.026 1.03 2.409 1.045 5.661 1.043h1.021l.653.002h.892c2.336-.009 3.534-.12 4.447-1.033 1.041-1.046 1.047-2.435 1.044-5.637V11.44l-.001-.24-.001-.43c-.004-1.33-.017-1.664-.051-2.422-.188-4.149-3.317-3.731-7.305-3.731l-.034-.022zm.033 2.773c2.544 0 4.608 2.062 4.608 4.609 0 2.544-2.062 4.608-4.608 4.608-2.545 0-4.609-2.062-4.609-4.608 0-2.545 2.062-4.609 4.609-4.609zm0 1.617c-1.653 0-2.992 1.34-2.992 2.992s1.338 2.99 2.992 2.99c1.653 0 2.992-1.338 2.99-2.99 0-1.653-1.338-2.992-2.99-2.992zm4.79-2.876c.595 0 1.078.482 1.078 1.077s-.483 1.077-1.077 1.077c-.595 0-1.077-.482-1.077-1.077s.482-1.077 1.077-1.077z" transform="translate(-1168 -1652) translate(0 1614) translate(247 38) translate(921)"/>
                    </g>
                </g>
            </g>
        </g>
    </g>
</svg>
