<svg xmlns="http://www.w3.org/2000/svg" width="24" height="24" viewBox="0 0 24 24">
    <g fill="none" fill-rule="evenodd">
        <g fill="#FFF">
            <g>
                <g>
                    <g>
                        <path d="M14.823 3.93l-.327-.066c-1.571-.291-3.421-.291-4.993 0l-.327.066-.145-.087c-1.34-.786-2.388-1.011-3.154-.846-.113.024-.209.056-.286.09-.227.102-.407.284-.507.512l-.092.23c-.313.854-.354 1.848-.149 2.781l.04.164-.082.112c-.562.812-.807 1.762-.801 2.885l.003.276c.077 3.17 1.491 4.878 3.982 5.648l.265.076-.005.011c-.19.406-.276.824-.243 1.29L8 20c0 .552.448 1 1 1h6c.552 0 1-.448 1-1v-3l.008-.184c.001-.304-.058-.595-.173-.883l-.076-.172c2.716-.73 4.24-2.539 4.24-6.018l-.004-.276c-.039-.996-.288-1.848-.8-2.586l-.08-.108.042-.163c.224-1.018.154-2.108-.241-3.011-.1-.228-.28-.41-.508-.512-.077-.034-.172-.066-.285-.09-.766-.165-1.813.06-3.155.846l-.145.087zm2.427 1.077l.02.157c.044.482-.025 1.01-.205 1.48-.138.363-.053.774.218 1.053.505.519.717 1.138.717 2.046 0 2.965-1.287 4.023-4.117 4.332-.833.09-1.192 1.103-.602 1.698l.133.138c.38.405.568.716.588.938L14 19h-4v-2c-.02-.313.205-.684.72-1.205.584-.59.235-1.595-.59-1.696C7.276 13.753 6 12.702 6 9.765c-.005-.918.208-1.545.716-2.068.272-.279.357-.69.218-1.053l-.07-.205c-.127-.415-.172-.862-.134-1.275l.019-.157c.442.113 1.01.375 1.702.83.238.155.53.202.805.13 1.615-.429 3.873-.429 5.488 0 .274.072.567.025.804-.13.616-.405 1.133-.657 1.553-.787l.149-.043z" transform="translate(-1169 -1250) translate(0 1212) translate(247 38) translate(922)"/>
                    </g>
                </g>
            </g>
        </g>
    </g>
</svg>
